<?xml version="1.0" standalone="no"?>
<!DOCTYPE svg PUBLIC "-//W3C//DTD SVG 20010904//EN"
 "http://www.w3.org/TR/2001/REC-SVG-20010904/DTD/svg10.dtd">
<svg version="1.0" xmlns="http://www.w3.org/2000/svg"
 width="580.000000pt" height="580.000000pt" viewBox="0 0 580.000000 580.000000"
 preserveAspectRatio="xMidYMid meet">
<metadata>
Created by potrace 1.14, written by Peter Selinger 2001-2017
</metadata>
<g transform="translate(0.000000,580.000000) scale(0.100000,-0.100000)"
fill="#000000" stroke="none">
<path d="M3200 4587 c-143 -34 -223 -111 -320 -312 -105 -215 -247 -543 -471
-1082 l-204 -493 -103 0 c-114 0 -143 -9 -185 -60 -29 -34 -43 -101 -33 -155
9 -48 57 -92 121 -110 l54 -16 -33 -77 c-83 -192 -152 -337 -221 -462 -63
-113 -75 -142 -75 -180 1 -59 30 -121 71 -153 44 -32 69 -39 141 -38 74 1 137
28 170 72 14 19 55 120 93 224 64 179 232 615 239 622 2 2 217 6 479 10 l475
6 6 -34 c9 -54 35 -388 46 -581 10 -186 21 -228 67 -270 59 -53 191 -66 271
-26 35 17 53 35 70 68 31 59 32 48 -83 860 -130 920 -189 1377 -240 1865 -18
175 -26 205 -68 251 -60 70 -159 96 -267 71z m89 -1047 c39 -388 73 -737 77
-776 l6 -71 -241 -8 c-196 -6 -561 1 -561 10 0 5 177 454 254 642 125 307 387
916 392 910 1 -1 34 -320 73 -707z"/>
</g>
</svg>
